<mxfile host="app.diagrams.net" modified="2022-07-29T06:28:42.087Z" agent="5.0 (Macintosh; Intel Mac OS X 10_15_7) AppleWebKit/537.36 (KHTML, like Gecko) Chrome/103.0.5060.114 Safari/537.36" etag="0gykiQR74FpxC7Kh0Fdp" version="20.2.1" type="github">
  <diagram id="acP68zsj97dmY6Sf0IXW" name="Page-1">
    <mxGraphModel dx="279" dy="534" grid="1" gridSize="10" guides="1" tooltips="1" connect="1" arrows="1" fold="1" page="1" pageScale="1" pageWidth="827" pageHeight="1169" math="0" shadow="0">
      <root>
        <mxCell id="0" />
        <mxCell id="1" parent="0" />
        <mxCell id="Qq_VRPktxRhrN_NKrk4j-2" value="Mystery Box" style="swimlane;fontStyle=0;childLayout=stackLayout;horizontal=1;startSize=30;horizontalStack=0;resizeParent=1;resizeParentMax=0;resizeLast=0;collapsible=1;marginBottom=0;" parent="1" vertex="1">
          <mxGeometry x="1150" y="470" width="140" height="150" as="geometry">
            <mxRectangle x="1101" y="490" width="60" height="30" as="alternateBounds" />
          </mxGeometry>
        </mxCell>
        <mxCell id="Qq_VRPktxRhrN_NKrk4j-3" value="_id : &lt;PK&gt;" style="text;align=left;verticalAlign=middle;spacingLeft=4;spacingRight=4;overflow=hidden;points=[[0,0.5],[1,0.5]];portConstraint=eastwest;rotatable=0;" parent="Qq_VRPktxRhrN_NKrk4j-2" vertex="1">
          <mxGeometry y="30" width="140" height="30" as="geometry" />
        </mxCell>
        <mxCell id="Qq_VRPktxRhrN_NKrk4j-6" value="user_id : &lt;FK&gt;" style="text;align=left;verticalAlign=middle;spacingLeft=4;spacingRight=4;overflow=hidden;points=[[0,0.5],[1,0.5]];portConstraint=eastwest;rotatable=0;" parent="Qq_VRPktxRhrN_NKrk4j-2" vertex="1">
          <mxGeometry y="60" width="140" height="30" as="geometry" />
        </mxCell>
        <mxCell id="Qq_VRPktxRhrN_NKrk4j-7" value="status : enum" style="text;strokeColor=none;fillColor=none;align=left;verticalAlign=middle;spacingLeft=4;spacingRight=4;overflow=hidden;points=[[0,0.5],[1,0.5]];portConstraint=eastwest;rotatable=0;" parent="Qq_VRPktxRhrN_NKrk4j-2" vertex="1">
          <mxGeometry y="90" width="140" height="30" as="geometry" />
        </mxCell>
        <mxCell id="Qq_VRPktxRhrN_NKrk4j-8" value="expires_at : timestamp" style="text;strokeColor=none;fillColor=none;align=left;verticalAlign=middle;spacingLeft=4;spacingRight=4;overflow=hidden;points=[[0,0.5],[1,0.5]];portConstraint=eastwest;rotatable=0;" parent="Qq_VRPktxRhrN_NKrk4j-2" vertex="1">
          <mxGeometry y="120" width="140" height="30" as="geometry" />
        </mxCell>
        <mxCell id="Qq_VRPktxRhrN_NKrk4j-9" value="Recharge Voucher" style="swimlane;fontStyle=0;childLayout=stackLayout;horizontal=1;startSize=30;horizontalStack=0;resizeParent=1;resizeParentMax=0;resizeLast=0;collapsible=1;marginBottom=0;" parent="1" vertex="1">
          <mxGeometry x="1150" y="690" width="140" height="150" as="geometry">
            <mxRectangle x="1101" y="490" width="60" height="30" as="alternateBounds" />
          </mxGeometry>
        </mxCell>
        <mxCell id="Qq_VRPktxRhrN_NKrk4j-10" value="_id : &lt;PK&gt;" style="text;align=left;verticalAlign=middle;spacingLeft=4;spacingRight=4;overflow=hidden;points=[[0,0.5],[1,0.5]];portConstraint=eastwest;rotatable=0;" parent="Qq_VRPktxRhrN_NKrk4j-9" vertex="1">
          <mxGeometry y="30" width="140" height="30" as="geometry" />
        </mxCell>
        <mxCell id="Qq_VRPktxRhrN_NKrk4j-11" value="user_id : &lt;FK&gt;" style="text;align=left;verticalAlign=middle;spacingLeft=4;spacingRight=4;overflow=hidden;points=[[0,0.5],[1,0.5]];portConstraint=eastwest;rotatable=0;" parent="Qq_VRPktxRhrN_NKrk4j-9" vertex="1">
          <mxGeometry y="60" width="140" height="30" as="geometry" />
        </mxCell>
        <mxCell id="Qq_VRPktxRhrN_NKrk4j-12" value="mystery_box_id : &lt;FK&gt;" style="text;align=left;verticalAlign=middle;spacingLeft=4;spacingRight=4;overflow=hidden;points=[[0,0.5],[1,0.5]];portConstraint=eastwest;rotatable=0;" parent="Qq_VRPktxRhrN_NKrk4j-9" vertex="1">
          <mxGeometry y="90" width="140" height="30" as="geometry" />
        </mxCell>
        <mxCell id="Qq_VRPktxRhrN_NKrk4j-13" value="status : enum" style="text;strokeColor=none;fillColor=none;align=left;verticalAlign=middle;spacingLeft=4;spacingRight=4;overflow=hidden;points=[[0,0.5],[1,0.5]];portConstraint=eastwest;rotatable=0;" parent="Qq_VRPktxRhrN_NKrk4j-9" vertex="1">
          <mxGeometry y="120" width="140" height="30" as="geometry" />
        </mxCell>
        <mxCell id="Qq_VRPktxRhrN_NKrk4j-14" value="Gem" style="swimlane;fontStyle=0;childLayout=stackLayout;horizontal=1;startSize=30;horizontalStack=0;resizeParent=1;resizeParentMax=0;resizeLast=0;collapsible=1;marginBottom=0;" parent="1" vertex="1">
          <mxGeometry x="1420" y="900" width="140" height="210" as="geometry">
            <mxRectangle x="1101" y="490" width="60" height="30" as="alternateBounds" />
          </mxGeometry>
        </mxCell>
        <mxCell id="Qq_VRPktxRhrN_NKrk4j-15" value="_id : &lt;PK&gt;" style="text;align=left;verticalAlign=middle;spacingLeft=4;spacingRight=4;overflow=hidden;points=[[0,0.5],[1,0.5]];portConstraint=eastwest;rotatable=0;" parent="Qq_VRPktxRhrN_NKrk4j-14" vertex="1">
          <mxGeometry y="30" width="140" height="30" as="geometry" />
        </mxCell>
        <mxCell id="Qq_VRPktxRhrN_NKrk4j-16" value="user_id : &lt;FK&gt;" style="text;align=left;verticalAlign=middle;spacingLeft=4;spacingRight=4;overflow=hidden;points=[[0,0.5],[1,0.5]];portConstraint=eastwest;rotatable=0;" parent="Qq_VRPktxRhrN_NKrk4j-14" vertex="1">
          <mxGeometry y="60" width="140" height="30" as="geometry" />
        </mxCell>
        <mxCell id="Qq_VRPktxRhrN_NKrk4j-44" value="equipped_in : &lt;FK&gt;" style="text;align=left;verticalAlign=middle;spacingLeft=4;spacingRight=4;overflow=hidden;points=[[0,0.5],[1,0.5]];portConstraint=eastwest;rotatable=0;" parent="Qq_VRPktxRhrN_NKrk4j-14" vertex="1">
          <mxGeometry y="90" width="140" height="30" as="geometry" />
        </mxCell>
        <mxCell id="Qq_VRPktxRhrN_NKrk4j-17" value="token_id : int" style="text;strokeColor=none;fillColor=none;align=left;verticalAlign=middle;spacingLeft=4;spacingRight=4;overflow=hidden;points=[[0,0.5],[1,0.5]];portConstraint=eastwest;rotatable=0;" parent="Qq_VRPktxRhrN_NKrk4j-14" vertex="1">
          <mxGeometry y="120" width="140" height="30" as="geometry" />
        </mxCell>
        <mxCell id="Qq_VRPktxRhrN_NKrk4j-18" value="type : enum" style="text;strokeColor=none;fillColor=none;align=left;verticalAlign=middle;spacingLeft=4;spacingRight=4;overflow=hidden;points=[[0,0.5],[1,0.5]];portConstraint=eastwest;rotatable=0;" parent="Qq_VRPktxRhrN_NKrk4j-14" vertex="1">
          <mxGeometry y="150" width="140" height="30" as="geometry" />
        </mxCell>
        <mxCell id="Qq_VRPktxRhrN_NKrk4j-49" value="burnt : boolean" style="text;strokeColor=none;fillColor=none;align=left;verticalAlign=middle;spacingLeft=4;spacingRight=4;overflow=hidden;points=[[0,0.5],[1,0.5]];portConstraint=eastwest;rotatable=0;" parent="Qq_VRPktxRhrN_NKrk4j-14" vertex="1">
          <mxGeometry y="180" width="140" height="30" as="geometry" />
        </mxCell>
        <mxCell id="Qq_VRPktxRhrN_NKrk4j-19" value="Glasses" style="swimlane;fontStyle=0;childLayout=stackLayout;horizontal=1;startSize=30;horizontalStack=0;resizeParent=1;resizeParentMax=0;resizeLast=0;collapsible=1;marginBottom=0;" parent="1" vertex="1">
          <mxGeometry x="1680" y="600" width="140" height="300" as="geometry">
            <mxRectangle x="1101" y="490" width="60" height="30" as="alternateBounds" />
          </mxGeometry>
        </mxCell>
        <mxCell id="Qq_VRPktxRhrN_NKrk4j-20" value="_id : &lt;PK&gt;" style="text;align=left;verticalAlign=middle;spacingLeft=4;spacingRight=4;overflow=hidden;points=[[0,0.5],[1,0.5]];portConstraint=eastwest;rotatable=0;" parent="Qq_VRPktxRhrN_NKrk4j-19" vertex="1">
          <mxGeometry y="30" width="140" height="30" as="geometry" />
        </mxCell>
        <mxCell id="Qq_VRPktxRhrN_NKrk4j-21" value="user_id : &lt;FK&gt;" style="text;align=left;verticalAlign=middle;spacingLeft=4;spacingRight=4;overflow=hidden;points=[[0,0.5],[1,0.5]];portConstraint=eastwest;rotatable=0;" parent="Qq_VRPktxRhrN_NKrk4j-19" vertex="1">
          <mxGeometry y="60" width="140" height="30" as="geometry" />
        </mxCell>
        <mxCell id="Qq_VRPktxRhrN_NKrk4j-35" value="token_id : int" style="text;strokeColor=none;fillColor=none;align=left;verticalAlign=middle;spacingLeft=4;spacingRight=4;overflow=hidden;points=[[0,0.5],[1,0.5]];portConstraint=eastwest;rotatable=0;" parent="Qq_VRPktxRhrN_NKrk4j-19" vertex="1">
          <mxGeometry y="90" width="140" height="30" as="geometry" />
        </mxCell>
        <mxCell id="Qq_VRPktxRhrN_NKrk4j-36" value="type : enum" style="text;strokeColor=none;fillColor=none;align=left;verticalAlign=middle;spacingLeft=4;spacingRight=4;overflow=hidden;points=[[0,0.5],[1,0.5]];portConstraint=eastwest;rotatable=0;" parent="Qq_VRPktxRhrN_NKrk4j-19" vertex="1">
          <mxGeometry y="120" width="140" height="30" as="geometry" />
        </mxCell>
        <mxCell id="Qq_VRPktxRhrN_NKrk4j-22" value="max_earnable_time : int" style="text;strokeColor=none;fillColor=none;align=left;verticalAlign=middle;spacingLeft=4;spacingRight=4;overflow=hidden;points=[[0,0.5],[1,0.5]];portConstraint=eastwest;rotatable=0;" parent="Qq_VRPktxRhrN_NKrk4j-19" vertex="1">
          <mxGeometry y="150" width="140" height="30" as="geometry" />
        </mxCell>
        <mxCell id="Qq_VRPktxRhrN_NKrk4j-23" value="unpaid_watch_time : int" style="text;strokeColor=none;fillColor=none;align=left;verticalAlign=middle;spacingLeft=4;spacingRight=4;overflow=hidden;points=[[0,0.5],[1,0.5]];portConstraint=eastwest;rotatable=0;" parent="Qq_VRPktxRhrN_NKrk4j-19" vertex="1">
          <mxGeometry y="180" width="140" height="30" as="geometry" />
        </mxCell>
        <mxCell id="E4734wGFi2ZkHmWSigHV-1" value="total_watch_time: int" style="text;strokeColor=none;fillColor=none;align=left;verticalAlign=middle;spacingLeft=4;spacingRight=4;overflow=hidden;points=[[0,0.5],[1,0.5]];portConstraint=eastwest;rotatable=0;" vertex="1" parent="Qq_VRPktxRhrN_NKrk4j-19">
          <mxGeometry y="210" width="140" height="30" as="geometry" />
        </mxCell>
        <mxCell id="E4734wGFi2ZkHmWSigHV-2" value="level: int" style="text;strokeColor=none;fillColor=none;align=left;verticalAlign=middle;spacingLeft=4;spacingRight=4;overflow=hidden;points=[[0,0.5],[1,0.5]];portConstraint=eastwest;rotatable=0;" vertex="1" parent="Qq_VRPktxRhrN_NKrk4j-19">
          <mxGeometry y="240" width="140" height="30" as="geometry" />
        </mxCell>
        <mxCell id="E4734wGFi2ZkHmWSigHV-5" value="drained: boolean" style="text;strokeColor=none;fillColor=none;align=left;verticalAlign=middle;spacingLeft=4;spacingRight=4;overflow=hidden;points=[[0,0.5],[1,0.5]];portConstraint=eastwest;rotatable=0;" vertex="1" parent="Qq_VRPktxRhrN_NKrk4j-19">
          <mxGeometry y="270" width="140" height="30" as="geometry" />
        </mxCell>
        <mxCell id="Qq_VRPktxRhrN_NKrk4j-24" value="User" style="swimlane;fontStyle=0;childLayout=stackLayout;horizontal=1;startSize=30;horizontalStack=0;resizeParent=1;resizeParentMax=0;resizeLast=0;collapsible=1;marginBottom=0;" parent="1" vertex="1">
          <mxGeometry x="1420" y="690" width="140" height="150" as="geometry">
            <mxRectangle x="1101" y="490" width="60" height="30" as="alternateBounds" />
          </mxGeometry>
        </mxCell>
        <mxCell id="Qq_VRPktxRhrN_NKrk4j-25" value="_id : &lt;PK&gt;" style="text;align=left;verticalAlign=middle;spacingLeft=4;spacingRight=4;overflow=hidden;points=[[0,0.5],[1,0.5]];portConstraint=eastwest;rotatable=0;" parent="Qq_VRPktxRhrN_NKrk4j-24" vertex="1">
          <mxGeometry y="30" width="140" height="30" as="geometry" />
        </mxCell>
        <mxCell id="Qq_VRPktxRhrN_NKrk4j-26" value="email: string" style="text;strokeColor=none;fillColor=none;align=left;verticalAlign=middle;spacingLeft=4;spacingRight=4;overflow=hidden;points=[[0,0.5],[1,0.5]];portConstraint=eastwest;rotatable=0;" parent="Qq_VRPktxRhrN_NKrk4j-24" vertex="1">
          <mxGeometry y="60" width="140" height="30" as="geometry" />
        </mxCell>
        <mxCell id="E4734wGFi2ZkHmWSigHV-6" value="address: string" style="text;strokeColor=none;fillColor=none;align=left;verticalAlign=middle;spacingLeft=4;spacingRight=4;overflow=hidden;points=[[0,0.5],[1,0.5]];portConstraint=eastwest;rotatable=0;" vertex="1" parent="Qq_VRPktxRhrN_NKrk4j-24">
          <mxGeometry y="90" width="140" height="30" as="geometry" />
        </mxCell>
        <mxCell id="E4734wGFi2ZkHmWSigHV-7" value="[...other properties]" style="text;strokeColor=none;fillColor=none;align=left;verticalAlign=middle;spacingLeft=4;spacingRight=4;overflow=hidden;points=[[0,0.5],[1,0.5]];portConstraint=eastwest;rotatable=0;" vertex="1" parent="Qq_VRPktxRhrN_NKrk4j-24">
          <mxGeometry y="120" width="140" height="30" as="geometry" />
        </mxCell>
        <mxCell id="Qq_VRPktxRhrN_NKrk4j-29" value="Referral" style="swimlane;fontStyle=0;childLayout=stackLayout;horizontal=1;startSize=30;horizontalStack=0;resizeParent=1;resizeParentMax=0;resizeLast=0;collapsible=1;marginBottom=0;" parent="1" vertex="1">
          <mxGeometry x="1420" y="440" width="140" height="180" as="geometry">
            <mxRectangle x="1101" y="490" width="60" height="30" as="alternateBounds" />
          </mxGeometry>
        </mxCell>
        <mxCell id="Qq_VRPktxRhrN_NKrk4j-30" value="_id : &lt;PK&gt;" style="text;align=left;verticalAlign=middle;spacingLeft=4;spacingRight=4;overflow=hidden;points=[[0,0.5],[1,0.5]];portConstraint=eastwest;rotatable=0;" parent="Qq_VRPktxRhrN_NKrk4j-29" vertex="1">
          <mxGeometry y="30" width="140" height="30" as="geometry" />
        </mxCell>
        <mxCell id="Qq_VRPktxRhrN_NKrk4j-33" value="mystery_box_id : &lt;FK&gt;" style="text;align=left;verticalAlign=middle;spacingLeft=4;spacingRight=4;overflow=hidden;points=[[0,0.5],[1,0.5]];portConstraint=eastwest;rotatable=0;" parent="Qq_VRPktxRhrN_NKrk4j-29" vertex="1">
          <mxGeometry y="60" width="140" height="30" as="geometry" />
        </mxCell>
        <mxCell id="Qq_VRPktxRhrN_NKrk4j-32" value="referee_id : &lt;FK&gt;" style="text;align=left;verticalAlign=middle;spacingLeft=4;spacingRight=4;overflow=hidden;points=[[0,0.5],[1,0.5]];portConstraint=eastwest;rotatable=0;" parent="Qq_VRPktxRhrN_NKrk4j-29" vertex="1">
          <mxGeometry y="90" width="140" height="30" as="geometry" />
        </mxCell>
        <mxCell id="Qq_VRPktxRhrN_NKrk4j-31" value="referrer_id : &lt;FK&gt;" style="text;align=left;verticalAlign=middle;spacingLeft=4;spacingRight=4;overflow=hidden;points=[[0,0.5],[1,0.5]];portConstraint=eastwest;rotatable=0;" parent="Qq_VRPktxRhrN_NKrk4j-29" vertex="1">
          <mxGeometry y="120" width="140" height="30" as="geometry" />
        </mxCell>
        <mxCell id="Qq_VRPktxRhrN_NKrk4j-34" value="status : enum" style="text;strokeColor=none;fillColor=none;align=left;verticalAlign=middle;spacingLeft=4;spacingRight=4;overflow=hidden;points=[[0,0.5],[1,0.5]];portConstraint=eastwest;rotatable=0;" parent="Qq_VRPktxRhrN_NKrk4j-29" vertex="1">
          <mxGeometry y="150" width="140" height="30" as="geometry" />
        </mxCell>
        <mxCell id="Qq_VRPktxRhrN_NKrk4j-38" style="edgeStyle=orthogonalEdgeStyle;rounded=0;orthogonalLoop=1;jettySize=auto;html=1;" parent="1" source="Qq_VRPktxRhrN_NKrk4j-31" target="Qq_VRPktxRhrN_NKrk4j-25" edge="1">
          <mxGeometry relative="1" as="geometry">
            <Array as="points">
              <mxPoint x="1580" y="575" />
              <mxPoint x="1580" y="730" />
            </Array>
          </mxGeometry>
        </mxCell>
        <mxCell id="Qq_VRPktxRhrN_NKrk4j-54" value="1 : n" style="edgeLabel;html=1;align=center;verticalAlign=middle;resizable=0;points=[];" parent="Qq_VRPktxRhrN_NKrk4j-38" vertex="1" connectable="0">
          <mxGeometry x="-0.1193" y="2" relative="1" as="geometry">
            <mxPoint as="offset" />
          </mxGeometry>
        </mxCell>
        <mxCell id="Qq_VRPktxRhrN_NKrk4j-39" style="edgeStyle=orthogonalEdgeStyle;rounded=0;orthogonalLoop=1;jettySize=auto;html=1;" parent="1" source="Qq_VRPktxRhrN_NKrk4j-32" target="Qq_VRPktxRhrN_NKrk4j-25" edge="1">
          <mxGeometry relative="1" as="geometry">
            <Array as="points">
              <mxPoint x="1610" y="545" />
              <mxPoint x="1610" y="735" />
            </Array>
          </mxGeometry>
        </mxCell>
        <mxCell id="Qq_VRPktxRhrN_NKrk4j-53" value="1 : n" style="edgeLabel;html=1;align=center;verticalAlign=middle;resizable=0;points=[];" parent="Qq_VRPktxRhrN_NKrk4j-39" vertex="1" connectable="0">
          <mxGeometry x="-0.2446" y="4" relative="1" as="geometry">
            <mxPoint as="offset" />
          </mxGeometry>
        </mxCell>
        <mxCell id="Qq_VRPktxRhrN_NKrk4j-40" style="edgeStyle=orthogonalEdgeStyle;rounded=0;orthogonalLoop=1;jettySize=auto;html=1;" parent="1" source="Qq_VRPktxRhrN_NKrk4j-33" target="Qq_VRPktxRhrN_NKrk4j-3" edge="1">
          <mxGeometry relative="1" as="geometry">
            <Array as="points" />
          </mxGeometry>
        </mxCell>
        <mxCell id="Qq_VRPktxRhrN_NKrk4j-52" value="1 : n" style="edgeLabel;html=1;align=center;verticalAlign=middle;resizable=0;points=[];" parent="Qq_VRPktxRhrN_NKrk4j-40" vertex="1" connectable="0">
          <mxGeometry x="0.2769" y="4" relative="1" as="geometry">
            <mxPoint as="offset" />
          </mxGeometry>
        </mxCell>
        <mxCell id="Qq_VRPktxRhrN_NKrk4j-41" style="edgeStyle=orthogonalEdgeStyle;rounded=0;orthogonalLoop=1;jettySize=auto;html=1;" parent="1" source="Qq_VRPktxRhrN_NKrk4j-21" target="Qq_VRPktxRhrN_NKrk4j-25" edge="1">
          <mxGeometry relative="1" as="geometry">
            <Array as="points">
              <mxPoint x="1650" y="675" />
              <mxPoint x="1650" y="740" />
            </Array>
          </mxGeometry>
        </mxCell>
        <mxCell id="Qq_VRPktxRhrN_NKrk4j-56" value="1 : n" style="edgeLabel;html=1;align=center;verticalAlign=middle;resizable=0;points=[];" parent="Qq_VRPktxRhrN_NKrk4j-41" vertex="1" connectable="0">
          <mxGeometry x="-0.2233" y="2" relative="1" as="geometry">
            <mxPoint as="offset" />
          </mxGeometry>
        </mxCell>
        <mxCell id="Qq_VRPktxRhrN_NKrk4j-42" style="edgeStyle=orthogonalEdgeStyle;rounded=0;orthogonalLoop=1;jettySize=auto;html=1;" parent="1" source="Qq_VRPktxRhrN_NKrk4j-11" target="Qq_VRPktxRhrN_NKrk4j-25" edge="1">
          <mxGeometry relative="1" as="geometry">
            <Array as="points">
              <mxPoint x="1355" y="765" />
              <mxPoint x="1355" y="735" />
            </Array>
          </mxGeometry>
        </mxCell>
        <mxCell id="Qq_VRPktxRhrN_NKrk4j-55" value="1 : n" style="edgeLabel;html=1;align=center;verticalAlign=middle;resizable=0;points=[];" parent="Qq_VRPktxRhrN_NKrk4j-42" vertex="1" connectable="0">
          <mxGeometry x="-0.4454" y="1" relative="1" as="geometry">
            <mxPoint as="offset" />
          </mxGeometry>
        </mxCell>
        <mxCell id="Qq_VRPktxRhrN_NKrk4j-43" style="edgeStyle=orthogonalEdgeStyle;rounded=0;orthogonalLoop=1;jettySize=auto;html=1;" parent="1" source="Qq_VRPktxRhrN_NKrk4j-16" target="Qq_VRPktxRhrN_NKrk4j-25" edge="1">
          <mxGeometry relative="1" as="geometry">
            <Array as="points">
              <mxPoint x="1380" y="975" />
              <mxPoint x="1380" y="740" />
            </Array>
          </mxGeometry>
        </mxCell>
        <mxCell id="Qq_VRPktxRhrN_NKrk4j-50" value="1 : n" style="edgeLabel;html=1;align=center;verticalAlign=middle;resizable=0;points=[];" parent="Qq_VRPktxRhrN_NKrk4j-43" vertex="1" connectable="0">
          <mxGeometry x="0.0005" y="3" relative="1" as="geometry">
            <mxPoint as="offset" />
          </mxGeometry>
        </mxCell>
        <mxCell id="Qq_VRPktxRhrN_NKrk4j-45" style="edgeStyle=orthogonalEdgeStyle;rounded=0;orthogonalLoop=1;jettySize=auto;html=1;" parent="1" source="Qq_VRPktxRhrN_NKrk4j-44" target="Qq_VRPktxRhrN_NKrk4j-20" edge="1">
          <mxGeometry relative="1" as="geometry">
            <Array as="points">
              <mxPoint x="1870" y="1005" />
              <mxPoint x="1870" y="645" />
            </Array>
          </mxGeometry>
        </mxCell>
        <mxCell id="Qq_VRPktxRhrN_NKrk4j-48" value="1 : n" style="edgeLabel;html=1;align=center;verticalAlign=middle;resizable=0;points=[];" parent="Qq_VRPktxRhrN_NKrk4j-45" vertex="1" connectable="0">
          <mxGeometry x="-0.349" relative="1" as="geometry">
            <mxPoint as="offset" />
          </mxGeometry>
        </mxCell>
        <mxCell id="Qq_VRPktxRhrN_NKrk4j-46" style="edgeStyle=orthogonalEdgeStyle;rounded=0;orthogonalLoop=1;jettySize=auto;html=1;" parent="1" source="Qq_VRPktxRhrN_NKrk4j-12" target="Qq_VRPktxRhrN_NKrk4j-3" edge="1">
          <mxGeometry relative="1" as="geometry">
            <Array as="points">
              <mxPoint x="1100" y="795" />
              <mxPoint x="1100" y="510" />
            </Array>
          </mxGeometry>
        </mxCell>
        <mxCell id="Qq_VRPktxRhrN_NKrk4j-51" value="1 : n" style="edgeLabel;html=1;align=center;verticalAlign=middle;resizable=0;points=[];" parent="Qq_VRPktxRhrN_NKrk4j-46" vertex="1" connectable="0">
          <mxGeometry x="-0.3298" y="2" relative="1" as="geometry">
            <mxPoint as="offset" />
          </mxGeometry>
        </mxCell>
        <mxCell id="E4734wGFi2ZkHmWSigHV-3" style="edgeStyle=orthogonalEdgeStyle;rounded=0;orthogonalLoop=1;jettySize=auto;html=1;" edge="1" parent="1" source="Qq_VRPktxRhrN_NKrk4j-6" target="Qq_VRPktxRhrN_NKrk4j-25">
          <mxGeometry relative="1" as="geometry">
            <Array as="points">
              <mxPoint x="1355" y="545" />
              <mxPoint x="1355" y="730" />
            </Array>
          </mxGeometry>
        </mxCell>
        <mxCell id="E4734wGFi2ZkHmWSigHV-4" value="1 : n" style="edgeLabel;html=1;align=center;verticalAlign=middle;resizable=0;points=[];" vertex="1" connectable="0" parent="E4734wGFi2ZkHmWSigHV-3">
          <mxGeometry x="-0.073" relative="1" as="geometry">
            <mxPoint as="offset" />
          </mxGeometry>
        </mxCell>
      </root>
    </mxGraphModel>
  </diagram>
</mxfile>
